<?xml version="1.0" standalone="no"?>
<!DOCTYPE svg PUBLIC "-//W3C//DTD SVG 20010904//EN"
 "http://www.w3.org/TR/2001/REC-SVG-20010904/DTD/svg10.dtd">
<svg style="background-color: #D1D1D1" version="1.0" xmlns="http://www.w3.org/2000/svg"
 width="2000.000000pt" height="366.000000pt" viewBox="0 0 2000.000000 366.000000"
 preserveAspectRatio="xMidYMid meet">

<g transform="translate(0.000000,366.000000) scale(0.100000,-0.100000)"
stroke="none">
<path fill="#3B0303" d="M0 1830 l0 -1830 10000 0 10000 0 0 1830 0 1830 -10000 0 -10000 0 0
-1830z m3172 1796 c106 -21 181 -52 251 -104 123 -93 224 -257 268 -433 l24
-94 0 -1160 0 -1160 -27 -96 c-50 -184 -136 -321 -260 -414 -118 -90 -215
-118 -398 -118 -189 -1 -295 32 -418 127 -105 81 -200 239 -244 406 l-23 85 0
1170 c0 1120 1 1173 19 1245 42 164 112 296 206 390 137 137 377 199 602 156z
m5843 -19 c215 -70 352 -231 420 -492 23 -87 45 -249 45 -332 0 -67 -2 -73
-22 -77 -24 -5 -441 -46 -469 -46 -14 0 -17 20 -22 128 -9 203 -53 317 -139
360 -61 31 -109 23 -159 -27 -63 -63 -95 -233 -70 -377 27 -156 81 -254 395
-724 388 -579 472 -767 483 -1076 18 -503 -179 -822 -552 -889 -182 -33 -402
-4 -548 72 -230 120 -339 364 -363 811 -6 125 -6 132 12 132 11 0 111 9 224
20 113 11 220 20 238 20 l32 0 0 -70 c0 -261 67 -465 166 -506 48 -20 123 -18
160 5 81 49 115 137 122 311 4 120 3 129 -27 220 -18 52 -56 139 -86 192 -56
101 -84 143 -347 535 -176 262 -248 385 -306 524 -100 241 -133 425 -112 618
36 326 196 569 432 655 103 38 156 45 293 42 95 -3 136 -9 200 -29z m2293 18
c105 -21 225 -81 294 -148 108 -103 188 -257 224 -427 15 -70 18 -137 18 -370
l1 -285 -240 0 -240 0 -5 290 -5 290 -29 58 c-44 92 -127 127 -214 92 -53 -21
-86 -61 -109 -128 -16 -48 -18 -131 -21 -1112 -2 -719 1 -1082 8 -1129 13 -82
53 -162 95 -188 40 -24 129 -24 175 0 23 12 46 38 65 73 l30 54 3 298 3 297
242 -2 242 -3 3 -215 c5 -348 -17 -499 -98 -665 -84 -173 -226 -294 -401 -341
-100 -27 -300 -24 -408 6 -230 64 -394 264 -458 560 -17 80 -18 158 -18 1210
0 890 3 1138 13 1185 89 407 311 611 670 614 46 1 118 -6 160 -14z m-10618
-32 c0 -4 70 -374 155 -823 85 -448 157 -846 161 -883 4 -37 10 -70 14 -72 4
-2 12 35 17 82 6 47 80 450 164 895 l154 808 318 0 317 0 0 -1760 0 -1760
-240 0 -240 0 0 1180 c0 1042 -2 1180 -15 1180 -8 0 -15 -1 -15 -3 0 -27 -332
-2265 -346 -2329 l-6 -28 -108 0 -108 0 -6 33 c-8 43 -325 2170 -332 2227 -10
81 -15 100 -30 100 -12 0 -14 -167 -14 -1180 l0 -1180 -240 0 -240 0 0 1760 0
1760 320 0 c176 0 320 -3 320 -7z m3872 -1023 c75 -564 137 -1031 138 -1037 0
-7 6 -13 14 -13 17 0 0 -116 156 1055 72 539 133 990 135 1003 l5 22 251 0
252 0 -6 -27 c-3 -16 -123 -808 -268 -1761 l-264 -1732 -260 2 -259 3 -262
1720 c-144 946 -265 1737 -268 1758 l-6 37 252 -2 253 -3 137 -1025z m1698
-730 l0 -1760 -255 0 -255 0 0 1760 0 1760 255 0 255 0 0 -1760z m1570 1495
l0 -265 -335 0 -335 0 0 -460 0 -460 240 0 240 0 0 -285 0 -285 -240 0 -240 0
2 -482 3 -483 333 -3 332 -2 0 -265 0 -265 -590 0 -590 0 0 1760 0 1760 590 0
590 0 0 -265z m5510 0 l0 -265 -335 0 -335 0 0 -460 0 -460 240 0 240 0 0
-285 0 -285 -240 0 -240 0 2 -482 3 -483 333 -3 332 -2 0 -265 0 -265 -590 0
-590 0 0 1760 0 1760 590 0 590 0 0 -265z m758 233 c392 -1438 538 -1958 549
-1958 11 0 13 188 13 995 l0 995 240 0 240 0 0 -1760 0 -1760 -232 2 -232 3
-259 945 c-142 520 -265 969 -274 998 -9 31 -20 52 -29 52 -12 0 -14 -140 -14
-1000 l0 -1000 -235 0 -235 0 0 1760 0 1760 230 0 229 0 9 -32z m2732 -233 l0
-265 -245 0 -245 0 0 -1495 0 -1495 -255 0 -255 0 0 1495 0 1495 -245 0 -245
0 0 265 0 265 745 0 745 0 0 -265z m1390 0 l0 -265 -335 0 -335 0 0 -460 0
-460 240 0 240 0 0 -285 0 -285 -240 0 -240 0 0 -485 0 -485 335 0 335 0 0
-265 0 -265 -595 0 -595 0 0 1760 0 1760 595 0 595 0 0 -265z m987 254 c237
-32 419 -135 529 -300 114 -172 165 -391 165 -709 0 -337 -80 -600 -224 -742
l-59 -58 162 -832 c88 -458 163 -841 166 -850 5 -17 -12 -18 -255 -18 -144 0
-261 1 -261 3 0 1 -60 333 -133 737 l-133 735 -72 3 -72 3 0 -741 0 -740 -255
0 -255 0 0 1760 0 1760 309 0 c170 0 345 -5 388 -11z"/>
<path fill="#3B0303" d="M2963 3119 c-47 -23 -74 -61 -92 -129 -9 -34 -11 -330 -9 -1175 l3
-1130 22 -41 c12 -23 36 -53 53 -68 26 -22 41 -26 92 -26 57 0 63 2 98 38 74
74 71 11 68 1273 l-3 1124 -28 57 c-22 45 -36 61 -71 77 -53 26 -80 26 -133 0z"/>
<path fill="#3B0303" d="M19020 2570 l0 -523 65 5 c115 10 204 69 256 169 43 85 61 184 61
339 0 344 -98 506 -315 527 l-67 6 0 -523z"/>
</g>
</svg>
